<mxfile host="Electron" modified="2024-05-28T00:48:51.027Z" agent="Mozilla/5.0 (Windows NT 10.0; Win64; x64) AppleWebKit/537.36 (KHTML, like Gecko) draw.io/24.4.8 Chrome/124.0.6367.207 Electron/30.0.6 Safari/537.36" etag="prIftuXStT9m3jKQ6Ize" version="24.4.8" type="device">
  <diagram name="Page-1" id="jwdiSO0T2RPL26EpH5Y4">
    <mxGraphModel dx="4148" dy="2392" grid="0" gridSize="10" guides="1" tooltips="1" connect="1" arrows="1" fold="1" page="1" pageScale="1" pageWidth="3300" pageHeight="4681" math="0" shadow="0">
      <root>
        <mxCell id="0" />
        <mxCell id="1" parent="0" />
        <mxCell id="nGlid799hZtoj7pSC51s-5" value="Tools" style="swimlane;fontStyle=0;childLayout=stackLayout;horizontal=1;startSize=30;horizontalStack=0;resizeParent=1;resizeParentMax=0;resizeLast=0;collapsible=1;marginBottom=0;whiteSpace=wrap;html=1;fontSize=15;" parent="1" vertex="1">
          <mxGeometry x="950.5" y="21" width="429" height="330" as="geometry">
            <mxRectangle x="72" y="30" width="63" height="30" as="alternateBounds" />
          </mxGeometry>
        </mxCell>
        <mxCell id="nGlid799hZtoj7pSC51s-9" value="" style="rounded=0;whiteSpace=wrap;html=1;fontStyle=0;fontSize=15;" parent="nGlid799hZtoj7pSC51s-5" vertex="1">
          <mxGeometry y="30" width="429" height="7" as="geometry" />
        </mxCell>
        <mxCell id="nGlid799hZtoj7pSC51s-6" value="+ remove_if_exists(path: str): None" style="text;strokeColor=none;fillColor=none;align=left;verticalAlign=middle;spacingLeft=4;spacingRight=4;overflow=hidden;points=[[0,0.5],[1,0.5]];portConstraint=eastwest;rotatable=0;whiteSpace=wrap;html=1;fontStyle=0;fontSize=15;" parent="nGlid799hZtoj7pSC51s-5" vertex="1">
          <mxGeometry y="37" width="429" height="23" as="geometry" />
        </mxCell>
        <mxCell id="nGlid799hZtoj7pSC51s-7" value="+ save_image(path: str, image: ndarray): None" style="text;strokeColor=none;fillColor=none;align=left;verticalAlign=middle;spacingLeft=4;spacingRight=4;overflow=hidden;points=[[0,0.5],[1,0.5]];portConstraint=eastwest;rotatable=0;whiteSpace=wrap;html=1;fontStyle=0;fontSize=15;" parent="nGlid799hZtoj7pSC51s-5" vertex="1">
          <mxGeometry y="60" width="429" height="20" as="geometry" />
        </mxCell>
        <mxCell id="nGlid799hZtoj7pSC51s-8" value="+ save_label(path: str, contents, str): None" style="text;strokeColor=none;fillColor=none;align=left;verticalAlign=middle;spacingLeft=4;spacingRight=4;overflow=hidden;points=[[0,0.5],[1,0.5]];portConstraint=eastwest;rotatable=0;whiteSpace=wrap;html=1;fontStyle=0;fontSize=15;" parent="nGlid799hZtoj7pSC51s-5" vertex="1">
          <mxGeometry y="80" width="429" height="20" as="geometry" />
        </mxCell>
        <mxCell id="nGlid799hZtoj7pSC51s-13" value="+ copy_file(source: str, destination: str): None&lt;span style=&quot;color: rgba(0, 0, 0, 0); font-family: monospace; font-size: 15px; text-wrap: nowrap;&quot;&gt;%3CmxGraphModel%3E%3Croot%3E%3CmxCell%20id%3D%220%22%2F%3E%3CmxCell%20id%3D%221%22%20parent%3D%220%22%2F%3E%3CmxCell%20id%3D%222%22%20value%3D%22%2B%20save_label(path%2C%20contents)%22%20style%3D%22text%3BstrokeColor%3Dnone%3BfillColor%3Dnone%3Balign%3Dleft%3BverticalAlign%3Dmiddle%3BspacingLeft%3D4%3BspacingRight%3D4%3Boverflow%3Dhidden%3Bpoints%3D%5B%5B0%2C0.5%5D%2C%5B1%2C0.5%5D%5D%3BportConstraint%3Deastwest%3Brotatable%3D0%3BwhiteSpace%3Dwrap%3Bhtml%3D1%3B%22%20vertex%3D%221%22%20parent%3D%221%22%3E%3CmxGeometry%20x%3D%2272%22%20y%3D%22127%22%20width%3D%22248%22%20height%3D%2230%22%20as%3D%22geometry%22%2F%3E%3C%2FmxCell%3E%3C%2Froot%3E%3C%2FmxGraphModel%3E&lt;/span&gt;" style="text;strokeColor=none;fillColor=none;align=left;verticalAlign=middle;spacingLeft=4;spacingRight=4;overflow=hidden;points=[[0,0.5],[1,0.5]];portConstraint=eastwest;rotatable=0;whiteSpace=wrap;html=1;fontStyle=0;fontSize=15;" parent="nGlid799hZtoj7pSC51s-5" vertex="1">
          <mxGeometry y="100" width="429" height="22" as="geometry" />
        </mxCell>
        <mxCell id="nGlid799hZtoj7pSC51s-14" value="+ move_file(source: str, destination: str): None" style="text;strokeColor=none;fillColor=none;align=left;verticalAlign=middle;spacingLeft=4;spacingRight=4;overflow=hidden;points=[[0,0.5],[1,0.5]];portConstraint=eastwest;rotatable=0;whiteSpace=wrap;html=1;fontStyle=0;fontSize=15;" parent="nGlid799hZtoj7pSC51s-5" vertex="1">
          <mxGeometry y="122" width="429" height="28" as="geometry" />
        </mxCell>
        <mxCell id="nGlid799hZtoj7pSC51s-15" value="+ load_yolo_labels(label_path: str): &lt;br style=&quot;font-size: 15px;&quot;&gt;&lt;span style=&quot;white-space: pre; font-size: 15px;&quot;&gt;&#x9;&lt;/span&gt;bboxes: [[float]]&lt;br style=&quot;font-size: 15px;&quot;&gt;&lt;span style=&quot;white-space: pre; font-size: 15px;&quot;&gt;&#x9;&lt;/span&gt;class_labels: [int]" style="text;strokeColor=none;fillColor=none;align=left;verticalAlign=middle;spacingLeft=4;spacingRight=4;overflow=hidden;points=[[0,0.5],[1,0.5]];portConstraint=eastwest;rotatable=0;whiteSpace=wrap;html=1;fontStyle=0;fontSize=15;" parent="nGlid799hZtoj7pSC51s-5" vertex="1">
          <mxGeometry y="150" width="429" height="60" as="geometry" />
        </mxCell>
        <mxCell id="nGlid799hZtoj7pSC51s-16" value="+ format_yolo_label(class_labels: [int], augmented_bboxes: [[float]]): str" style="text;strokeColor=none;fillColor=none;align=left;verticalAlign=middle;spacingLeft=4;spacingRight=4;overflow=hidden;points=[[0,0.5],[1,0.5]];portConstraint=eastwest;rotatable=0;whiteSpace=wrap;html=1;fontStyle=0;fontSize=15;" parent="nGlid799hZtoj7pSC51s-5" vertex="1">
          <mxGeometry y="210" width="429" height="23" as="geometry" />
        </mxCell>
        <mxCell id="nGlid799hZtoj7pSC51s-17" value="+ overlay_bbox_image(image_path: str, label_path: str): None" style="text;strokeColor=none;fillColor=none;align=left;verticalAlign=middle;spacingLeft=4;spacingRight=4;overflow=hidden;points=[[0,0.5],[1,0.5]];portConstraint=eastwest;rotatable=0;whiteSpace=wrap;html=1;fontStyle=0;fontSize=15;" parent="nGlid799hZtoj7pSC51s-5" vertex="1">
          <mxGeometry y="233" width="429" height="27" as="geometry" />
        </mxCell>
        <mxCell id="nGlid799hZtoj7pSC51s-18" value="+ pretty_print_dict(dict: dict, indent: int): str" style="text;strokeColor=none;fillColor=none;align=left;verticalAlign=middle;spacingLeft=4;spacingRight=4;overflow=hidden;points=[[0,0.5],[1,0.5]];portConstraint=eastwest;rotatable=0;whiteSpace=wrap;html=1;fontStyle=0;fontSize=15;" parent="nGlid799hZtoj7pSC51s-5" vertex="1">
          <mxGeometry y="260" width="429" height="19" as="geometry" />
        </mxCell>
        <mxCell id="nGlid799hZtoj7pSC51s-19" value="+ count_images(directory: str): int" style="text;strokeColor=none;fillColor=none;align=left;verticalAlign=middle;spacingLeft=4;spacingRight=4;overflow=hidden;points=[[0,0.5],[1,0.5]];portConstraint=eastwest;rotatable=0;whiteSpace=wrap;html=1;fontStyle=0;fontSize=15;" parent="nGlid799hZtoj7pSC51s-5" vertex="1">
          <mxGeometry y="279" width="429" height="21" as="geometry" />
        </mxCell>
        <mxCell id="nGlid799hZtoj7pSC51s-20" value="+ generate_seed(): int" style="text;strokeColor=none;fillColor=none;align=left;verticalAlign=middle;spacingLeft=4;spacingRight=4;overflow=hidden;points=[[0,0.5],[1,0.5]];portConstraint=eastwest;rotatable=0;whiteSpace=wrap;html=1;fontStyle=0;fontSize=15;" parent="nGlid799hZtoj7pSC51s-5" vertex="1">
          <mxGeometry y="300" width="429" height="30" as="geometry" />
        </mxCell>
        <mxCell id="xS9U4MmgXTDxuair34R1-1" style="edgeStyle=orthogonalEdgeStyle;rounded=0;orthogonalLoop=1;jettySize=auto;html=1;exitX=0.75;exitY=0;exitDx=0;exitDy=0;entryX=0;entryY=0.5;entryDx=0;entryDy=0;" parent="1" source="nGlid799hZtoj7pSC51s-21" target="nGlid799hZtoj7pSC51s-15" edge="1">
          <mxGeometry relative="1" as="geometry">
            <Array as="points">
              <mxPoint x="730" y="370" />
              <mxPoint x="730" y="201" />
            </Array>
          </mxGeometry>
        </mxCell>
        <mxCell id="nGlid799hZtoj7pSC51s-21" value="Augmenter" style="swimlane;fontStyle=0;childLayout=stackLayout;horizontal=1;startSize=30;horizontalStack=0;resizeParent=1;resizeParentMax=0;resizeLast=0;collapsible=1;marginBottom=0;whiteSpace=wrap;html=1;fontSize=15;" parent="1" vertex="1">
          <mxGeometry x="430" y="370" width="426" height="573" as="geometry">
            <mxRectangle x="72" y="30" width="63" height="30" as="alternateBounds" />
          </mxGeometry>
        </mxCell>
        <mxCell id="nGlid799hZtoj7pSC51s-22" value="" style="rounded=0;whiteSpace=wrap;html=1;fontStyle=0;fontSize=15;" parent="nGlid799hZtoj7pSC51s-21" vertex="1">
          <mxGeometry y="30" width="426" height="7" as="geometry" />
        </mxCell>
        <mxCell id="nGlid799hZtoj7pSC51s-23" value="+ flip(image_path: str, label_path: str, orientation: chr, p: float):&lt;br style=&quot;font-size: 15px;&quot;&gt;&lt;span style=&quot;white-space: pre; font-size: 15px;&quot;&gt;&#x9;&lt;/span&gt;augmented_image: ndarray&lt;div style=&quot;font-size: 15px;&quot;&gt;&lt;span style=&quot;white-space: pre; font-size: 15px;&quot;&gt;&#x9;&lt;/span&gt;augmented_label: str&lt;br style=&quot;font-size: 15px;&quot;&gt;&lt;/div&gt;" style="text;strokeColor=none;fillColor=none;align=left;verticalAlign=middle;spacingLeft=4;spacingRight=4;overflow=hidden;points=[[0,0.5],[1,0.5]];portConstraint=eastwest;rotatable=0;whiteSpace=wrap;html=1;fontStyle=0;fontSize=15;" parent="nGlid799hZtoj7pSC51s-21" vertex="1">
          <mxGeometry y="37" width="426" height="68" as="geometry" />
        </mxCell>
        <mxCell id="nGlid799hZtoj7pSC51s-34" value="+ rotate(image_path: str, label_path: str, angle_limit: int, p: float):&lt;br style=&quot;font-size: 15px;&quot;&gt;&lt;span style=&quot;white-space: pre; font-size: 15px;&quot;&gt;&#x9;&lt;/span&gt;augmented_image: ndarray&lt;div style=&quot;font-size: 15px;&quot;&gt;&lt;span style=&quot;white-space: pre; font-size: 15px;&quot;&gt;&#x9;&lt;/span&gt;augmented_label: str&lt;br style=&quot;font-size: 15px;&quot;&gt;&lt;/div&gt;" style="text;strokeColor=none;fillColor=none;align=left;verticalAlign=middle;spacingLeft=4;spacingRight=4;overflow=hidden;points=[[0,0.5],[1,0.5]];portConstraint=eastwest;rotatable=0;whiteSpace=wrap;html=1;fontStyle=0;fontSize=15;" parent="nGlid799hZtoj7pSC51s-21" vertex="1">
          <mxGeometry y="105" width="426" height="75" as="geometry" />
        </mxCell>
        <mxCell id="nGlid799hZtoj7pSC51s-35" value="+ brightness_and_contrast(image_path: str, alpha: float, beta: float):&amp;nbsp;augmented_image: ndarray" style="text;strokeColor=none;fillColor=none;align=left;verticalAlign=middle;spacingLeft=4;spacingRight=4;overflow=hidden;points=[[0,0.5],[1,0.5]];portConstraint=eastwest;rotatable=0;whiteSpace=wrap;html=1;fontStyle=0;fontSize=15;" parent="nGlid799hZtoj7pSC51s-21" vertex="1">
          <mxGeometry y="180" width="426" height="50" as="geometry" />
        </mxCell>
        <mxCell id="nGlid799hZtoj7pSC51s-36" value="+ hist_eq(image_path: str, p: float): augmented_image: ndarray" style="text;strokeColor=none;fillColor=none;align=left;verticalAlign=middle;spacingLeft=4;spacingRight=4;overflow=hidden;points=[[0,0.5],[1,0.5]];portConstraint=eastwest;rotatable=0;whiteSpace=wrap;html=1;fontStyle=0;fontSize=15;" parent="nGlid799hZtoj7pSC51s-21" vertex="1">
          <mxGeometry y="230" width="426" height="40" as="geometry" />
        </mxCell>
        <mxCell id="nGlid799hZtoj7pSC51s-37" value="+ white_balance(image_path: str): augmented_image: ndarray" style="text;strokeColor=none;fillColor=none;align=left;verticalAlign=middle;spacingLeft=4;spacingRight=4;overflow=hidden;points=[[0,0.5],[1,0.5]];portConstraint=eastwest;rotatable=0;whiteSpace=wrap;html=1;fontStyle=0;fontSize=15;" parent="nGlid799hZtoj7pSC51s-21" vertex="1">
          <mxGeometry y="270" width="426" height="34" as="geometry" />
        </mxCell>
        <mxCell id="nGlid799hZtoj7pSC51s-38" value="+ sharpen(image_path: str): augmented_image: ndarray" style="text;strokeColor=none;fillColor=none;align=left;verticalAlign=middle;spacingLeft=4;spacingRight=4;overflow=hidden;points=[[0,0.5],[1,0.5]];portConstraint=eastwest;rotatable=0;whiteSpace=wrap;html=1;fontStyle=0;fontSize=15;" parent="nGlid799hZtoj7pSC51s-21" vertex="1">
          <mxGeometry y="304" width="426" height="27" as="geometry" />
        </mxCell>
        <mxCell id="nGlid799hZtoj7pSC51s-39" value="+ gaussian_noise(image_path: str, var_limit=(float, float)):&amp;nbsp;augmented_image: ndarray" style="text;strokeColor=none;fillColor=none;align=left;verticalAlign=middle;spacingLeft=4;spacingRight=4;overflow=hidden;points=[[0,0.5],[1,0.5]];portConstraint=eastwest;rotatable=0;whiteSpace=wrap;html=1;fontStyle=0;fontSize=15;" parent="nGlid799hZtoj7pSC51s-21" vertex="1">
          <mxGeometry y="331" width="426" height="40" as="geometry" />
        </mxCell>
        <mxCell id="nGlid799hZtoj7pSC51s-40" value="+ zoom(image_path: str, label_path: str, zoom_factor: float):&lt;br style=&quot;font-size: 15px;&quot;&gt;&lt;span style=&quot;white-space: pre; font-size: 15px;&quot;&gt;&#x9;&lt;/span&gt;augmented_image: ndarray&lt;div style=&quot;font-size: 15px;&quot;&gt;&lt;span style=&quot;white-space: pre; font-size: 15px;&quot;&gt;&#x9;&lt;/span&gt;augmented_label:str&lt;br style=&quot;font-size: 15px;&quot;&gt;&lt;/div&gt;" style="text;strokeColor=none;fillColor=none;align=left;verticalAlign=middle;spacingLeft=4;spacingRight=4;overflow=hidden;points=[[0,0.5],[1,0.5]];portConstraint=eastwest;rotatable=0;whiteSpace=wrap;html=1;fontStyle=0;fontSize=15;" parent="nGlid799hZtoj7pSC51s-21" vertex="1">
          <mxGeometry y="371" width="426" height="66" as="geometry" />
        </mxCell>
        <mxCell id="nGlid799hZtoj7pSC51s-42" value="+ augment_image(&lt;div style=&quot;font-size: 15px;&quot;&gt;&lt;span style=&quot;white-space: pre; font-size: 15px;&quot;&gt;&#x9;&lt;/span&gt;image_path: str,&amp;nbsp;&lt;/div&gt;&lt;div style=&quot;font-size: 15px;&quot;&gt;&lt;span style=&quot;white-space: pre; font-size: 15px;&quot;&gt;&#x9;&lt;/span&gt;images_aug_dir: str,&amp;nbsp;&lt;/div&gt;&lt;div style=&quot;font-size: 15px;&quot;&gt;&lt;span style=&quot;white-space: pre; font-size: 15px;&quot;&gt;&#x9;&lt;/span&gt;label_path: str,&lt;/div&gt;&lt;div style=&quot;font-size: 15px;&quot;&gt;&lt;span style=&quot;white-space: pre; font-size: 15px;&quot;&gt;&#x9;&lt;/span&gt;labels_aug_dir: str,&amp;nbsp;&lt;br style=&quot;font-size: 15px;&quot;&gt;&lt;/div&gt;&lt;div style=&quot;font-size: 15px;&quot;&gt;&lt;span style=&quot;white-space: pre; font-size: 15px;&quot;&gt;&#x9;&lt;/span&gt;method_name: str,&amp;nbsp;&lt;br style=&quot;font-size: 15px;&quot;&gt;&lt;/div&gt;&lt;div style=&quot;font-size: 15px;&quot;&gt;&lt;span style=&quot;white-space: pre; font-size: 15px;&quot;&gt;&#x9;&lt;/span&gt;method_info: dict): None&lt;/div&gt;" style="text;strokeColor=none;fillColor=none;align=left;verticalAlign=middle;spacingLeft=4;spacingRight=4;overflow=hidden;points=[[0,0.5],[1,0.5]];portConstraint=eastwest;rotatable=0;whiteSpace=wrap;html=1;fontStyle=0;fontSize=15;" parent="nGlid799hZtoj7pSC51s-21" vertex="1">
          <mxGeometry y="437" width="426" height="136" as="geometry" />
        </mxCell>
        <mxCell id="nGlid799hZtoj7pSC51s-43" value="Dataset" style="swimlane;fontStyle=0;childLayout=stackLayout;horizontal=1;startSize=30;horizontalStack=0;resizeParent=1;resizeParentMax=0;resizeLast=0;collapsible=1;marginBottom=0;whiteSpace=wrap;html=1;fontSize=15;" parent="1" vertex="1">
          <mxGeometry x="870" y="370" width="579" height="441" as="geometry">
            <mxRectangle x="72" y="30" width="63" height="30" as="alternateBounds" />
          </mxGeometry>
        </mxCell>
        <mxCell id="nGlid799hZtoj7pSC51s-44" value="&amp;nbsp;+ max_workers=12" style="rounded=0;whiteSpace=wrap;html=1;align=left;fontStyle=0;fontSize=15;" parent="nGlid799hZtoj7pSC51s-43" vertex="1">
          <mxGeometry y="30" width="579" height="32" as="geometry" />
        </mxCell>
        <mxCell id="nGlid799hZtoj7pSC51s-55" value="+ create_dataframe(images_path: str, labels_path: str, metadata_path:str): pd.dataframe" style="text;strokeColor=none;fillColor=none;align=left;verticalAlign=middle;spacingLeft=4;spacingRight=4;overflow=hidden;points=[[0,0.5],[1,0.5]];portConstraint=eastwest;rotatable=0;whiteSpace=wrap;html=1;fontStyle=0;fontSize=15;" parent="nGlid799hZtoj7pSC51s-43" vertex="1">
          <mxGeometry y="62" width="579" height="48" as="geometry" />
        </mxCell>
        <mxCell id="nGlid799hZtoj7pSC51s-58" value="+ copy_dataframe_files_concurrently(df: pd.dataframe, img_dst: str, lbl_dst:str): None" style="text;strokeColor=none;fillColor=none;align=left;verticalAlign=middle;spacingLeft=4;spacingRight=4;overflow=hidden;points=[[0,0.5],[1,0.5]];portConstraint=eastwest;rotatable=0;whiteSpace=wrap;html=1;fontStyle=0;fontSize=15;" parent="nGlid799hZtoj7pSC51s-43" vertex="1">
          <mxGeometry y="110" width="579" height="28" as="geometry" />
        </mxCell>
        <mxCell id="nGlid799hZtoj7pSC51s-59" value="+ create_sub_dataset(dataset_dir: str,&lt;div style=&quot;font-size: 15px;&quot;&gt;&lt;span style=&quot;white-space: pre; font-size: 15px;&quot;&gt;&#x9;&lt;/span&gt;&lt;span style=&quot;white-space: pre; font-size: 15px;&quot;&gt;&#x9;&lt;/span&gt;&lt;span style=&quot;white-space: pre; font-size: 15px;&quot;&gt;&#x9;&lt;/span&gt;&lt;span style=&quot;white-space: pre; font-size: 15px;&quot;&gt;&#x9;&lt;/span&gt;&amp;nbsp; &amp;nbsp; filtered_train_df: pd.dataframe,&amp;nbsp;&lt;/div&gt;&lt;div style=&quot;font-size: 15px;&quot;&gt;&lt;span style=&quot;white-space: pre; font-size: 15px;&quot;&gt;&#x9;&lt;/span&gt;&lt;span style=&quot;white-space: pre; font-size: 15px;&quot;&gt;&#x9;&lt;/span&gt;&lt;span style=&quot;white-space: pre; font-size: 15px;&quot;&gt;&#x9;&lt;/span&gt;&lt;span style=&quot;white-space: pre; font-size: 15px;&quot;&gt;&#x9;&lt;/span&gt;&amp;nbsp; &amp;nbsp; filtered_valid_df: pd.dataframe,&lt;/div&gt;&lt;div style=&quot;font-size: 15px;&quot;&gt;&lt;span style=&quot;white-space: pre; font-size: 15px;&quot;&gt;&#x9;&lt;/span&gt;&lt;span style=&quot;white-space: pre; font-size: 15px;&quot;&gt;&#x9;&lt;/span&gt;&lt;span style=&quot;white-space: pre; font-size: 15px;&quot;&gt;&#x9;&lt;/span&gt;&lt;span style=&quot;white-space: pre; font-size: 15px;&quot;&gt;&#x9;&lt;/span&gt;&amp;nbsp; &amp;nbsp; class_names: [str]): None&lt;/div&gt;" style="text;strokeColor=none;fillColor=none;align=left;verticalAlign=middle;spacingLeft=4;spacingRight=4;overflow=hidden;points=[[0,0.5],[1,0.5]];portConstraint=eastwest;rotatable=0;whiteSpace=wrap;html=1;fontStyle=0;fontSize=15;" parent="nGlid799hZtoj7pSC51s-43" vertex="1">
          <mxGeometry y="138" width="579" height="79" as="geometry" />
        </mxCell>
        <mxCell id="nGlid799hZtoj7pSC51s-60" value="+ pre_process_dataset_for_classification(dataset_dir: str,&amp;nbsp;&lt;span style=&quot;background-color: initial; font-size: 15px;&quot;&gt;zoom_factor: float&lt;/span&gt;&lt;span style=&quot;background-color: initial; font-size: 15px;&quot;&gt;): None&lt;/span&gt;" style="text;strokeColor=none;fillColor=none;align=left;verticalAlign=middle;spacingLeft=4;spacingRight=4;overflow=hidden;points=[[0,0.5],[1,0.5]];portConstraint=eastwest;rotatable=0;whiteSpace=wrap;html=1;fontStyle=0;fontSize=15;" parent="nGlid799hZtoj7pSC51s-43" vertex="1">
          <mxGeometry y="217" width="579" height="26" as="geometry" />
        </mxCell>
        <mxCell id="nGlid799hZtoj7pSC51s-61" value="+ correct_dataset_labels(dataset_dir: str,&lt;div style=&quot;font-size: 15px;&quot;&gt;&lt;span style=&quot;white-space: pre; font-size: 15px;&quot;&gt;&#x9;&lt;/span&gt;&lt;span style=&quot;white-space: pre; font-size: 15px;&quot;&gt;&#x9;&lt;/span&gt;&lt;span style=&quot;white-space: pre; font-size: 15px;&quot;&gt;&#x9;&lt;/span&gt;&lt;span style=&quot;white-space: pre; font-size: 15px;&quot;&gt;&#x9;&lt;/span&gt;&amp;nbsp; &amp;nbsp; &amp;nbsp; &amp;nbsp; &amp;nbsp;train_df: pd.dataframe,&amp;nbsp;&lt;/div&gt;&lt;div style=&quot;font-size: 15px;&quot;&gt;&lt;span style=&quot;white-space: pre; font-size: 15px;&quot;&gt;&#x9;&lt;/span&gt;&lt;span style=&quot;white-space: pre; font-size: 15px;&quot;&gt;&#x9;&lt;/span&gt;&lt;span style=&quot;white-space: pre; font-size: 15px;&quot;&gt;&#x9;&lt;/span&gt;&lt;span style=&quot;white-space: pre; font-size: 15px;&quot;&gt;&#x9;&lt;/span&gt;&amp;nbsp; &amp;nbsp; &amp;nbsp; &amp;nbsp; &amp;nbsp;val_df: pd.dataframe,&lt;/div&gt;&lt;div style=&quot;font-size: 15px;&quot;&gt;&lt;span style=&quot;white-space: pre; font-size: 15px;&quot;&gt;&#x9;&lt;/span&gt;&lt;span style=&quot;white-space: pre; font-size: 15px;&quot;&gt;&#x9;&lt;/span&gt;&lt;span style=&quot;white-space: pre; font-size: 15px;&quot;&gt;&#x9;&lt;/span&gt;&lt;span style=&quot;white-space: pre; font-size: 15px;&quot;&gt;&#x9;&lt;/span&gt;&amp;nbsp; &amp;nbsp; &amp;nbsp; &amp;nbsp; &amp;nbsp;class_names: [str]): None&lt;/div&gt;" style="text;strokeColor=none;fillColor=none;align=left;verticalAlign=middle;spacingLeft=4;spacingRight=4;overflow=hidden;points=[[0,0.5],[1,0.5]];portConstraint=eastwest;rotatable=0;whiteSpace=wrap;html=1;fontStyle=0;fontSize=15;" parent="nGlid799hZtoj7pSC51s-43" vertex="1">
          <mxGeometry y="243" width="579" height="74" as="geometry" />
        </mxCell>
        <mxCell id="nGlid799hZtoj7pSC51s-62" value="+ create_augmented_dataset_structure(original_dataset_dir: str): None" style="text;strokeColor=none;fillColor=none;align=left;verticalAlign=middle;spacingLeft=4;spacingRight=4;overflow=hidden;points=[[0,0.5],[1,0.5]];portConstraint=eastwest;rotatable=0;whiteSpace=wrap;html=1;fontStyle=0;fontSize=15;" parent="nGlid799hZtoj7pSC51s-43" vertex="1">
          <mxGeometry y="317" width="579" height="25" as="geometry" />
        </mxCell>
        <mxCell id="nGlid799hZtoj7pSC51s-63" value="+ copy_directory_contents_concurrently(source_dir: str, dest_dir): None" style="text;strokeColor=none;fillColor=none;align=left;verticalAlign=middle;spacingLeft=4;spacingRight=4;overflow=hidden;points=[[0,0.5],[1,0.5]];portConstraint=eastwest;rotatable=0;whiteSpace=wrap;html=1;fontStyle=0;fontSize=15;" parent="nGlid799hZtoj7pSC51s-43" vertex="1">
          <mxGeometry y="342" width="579" height="24" as="geometry" />
        </mxCell>
        <mxCell id="nGlid799hZtoj7pSC51s-64" value="+ augment_dataset(original_dataset_dir: str, augmentation_metadata: dict): None" style="text;strokeColor=none;fillColor=none;align=left;verticalAlign=middle;spacingLeft=4;spacingRight=4;overflow=hidden;points=[[0,0.5],[1,0.5]];portConstraint=eastwest;rotatable=0;whiteSpace=wrap;html=1;fontStyle=0;fontSize=15;" parent="nGlid799hZtoj7pSC51s-43" vertex="1">
          <mxGeometry y="366" width="579" height="25" as="geometry" />
        </mxCell>
        <mxCell id="nGlid799hZtoj7pSC51s-66" value="+ reorganise_dataset_for_keras(dataset_dir: str): None" style="text;strokeColor=none;fillColor=none;align=left;verticalAlign=middle;spacingLeft=4;spacingRight=4;overflow=hidden;points=[[0,0.5],[1,0.5]];portConstraint=eastwest;rotatable=0;whiteSpace=wrap;html=1;fontStyle=0;fontSize=15;" parent="nGlid799hZtoj7pSC51s-43" vertex="1">
          <mxGeometry y="391" width="579" height="22" as="geometry" />
        </mxCell>
        <mxCell id="oV85DCt09_R3GapRd5gg-1" value="+ increase_pure_set(dataset_dir: str, n: int): None" style="text;strokeColor=none;fillColor=none;align=left;verticalAlign=middle;spacingLeft=4;spacingRight=4;overflow=hidden;points=[[0,0.5],[1,0.5]];portConstraint=eastwest;rotatable=0;whiteSpace=wrap;html=1;fontStyle=0;fontSize=15;" parent="nGlid799hZtoj7pSC51s-43" vertex="1">
          <mxGeometry y="413" width="579" height="28" as="geometry" />
        </mxCell>
        <mxCell id="nGlid799hZtoj7pSC51s-67" value="Config" style="swimlane;fontStyle=0;childLayout=stackLayout;horizontal=1;startSize=30;horizontalStack=0;resizeParent=1;resizeParentMax=0;resizeLast=0;collapsible=1;marginBottom=0;whiteSpace=wrap;html=1;fontSize=15;" parent="1" vertex="1">
          <mxGeometry x="1190" y="1450" width="220" height="249" as="geometry">
            <mxRectangle x="72" y="30" width="63" height="30" as="alternateBounds" />
          </mxGeometry>
        </mxCell>
        <mxCell id="nGlid799hZtoj7pSC51s-69" value="+ BASE_DATASET: str" style="text;strokeColor=none;fillColor=none;align=left;verticalAlign=middle;spacingLeft=4;spacingRight=4;overflow=hidden;points=[[0,0.5],[1,0.5]];portConstraint=eastwest;rotatable=0;whiteSpace=wrap;html=1;fontStyle=0;fontSize=15;" parent="nGlid799hZtoj7pSC51s-67" vertex="1">
          <mxGeometry y="30" width="220" height="24" as="geometry" />
        </mxCell>
        <mxCell id="nGlid799hZtoj7pSC51s-80" value="+ PROJECT_NAME: str" style="text;strokeColor=none;fillColor=none;align=left;verticalAlign=middle;spacingLeft=4;spacingRight=4;overflow=hidden;points=[[0,0.5],[1,0.5]];portConstraint=eastwest;rotatable=0;whiteSpace=wrap;html=1;fontStyle=0;fontSize=15;" parent="nGlid799hZtoj7pSC51s-67" vertex="1">
          <mxGeometry y="54" width="220" height="22" as="geometry" />
        </mxCell>
        <mxCell id="nGlid799hZtoj7pSC51s-81" value="+ YOLO_DATASET_DIR: str" style="text;strokeColor=none;fillColor=none;align=left;verticalAlign=middle;spacingLeft=4;spacingRight=4;overflow=hidden;points=[[0,0.5],[1,0.5]];portConstraint=eastwest;rotatable=0;whiteSpace=wrap;html=1;fontStyle=0;fontSize=15;" parent="nGlid799hZtoj7pSC51s-67" vertex="1">
          <mxGeometry y="76" width="220" height="19" as="geometry" />
        </mxCell>
        <mxCell id="nGlid799hZtoj7pSC51s-82" value="+ YOLO_PROJECT_DIR: str" style="text;strokeColor=none;fillColor=none;align=left;verticalAlign=middle;spacingLeft=4;spacingRight=4;overflow=hidden;points=[[0,0.5],[1,0.5]];portConstraint=eastwest;rotatable=0;whiteSpace=wrap;html=1;fontStyle=0;fontSize=15;" parent="nGlid799hZtoj7pSC51s-67" vertex="1">
          <mxGeometry y="95" width="220" height="22" as="geometry" />
        </mxCell>
        <mxCell id="nGlid799hZtoj7pSC51s-83" value="+ YOLO_PROJECT_NAME: str" style="text;strokeColor=none;fillColor=none;align=left;verticalAlign=middle;spacingLeft=4;spacingRight=4;overflow=hidden;points=[[0,0.5],[1,0.5]];portConstraint=eastwest;rotatable=0;whiteSpace=wrap;html=1;fontStyle=0;fontSize=15;" parent="nGlid799hZtoj7pSC51s-67" vertex="1">
          <mxGeometry y="117" width="220" height="19" as="geometry" />
        </mxCell>
        <mxCell id="nGlid799hZtoj7pSC51s-84" value="+ YOLO_CLASS_NAMES: [str]" style="text;strokeColor=none;fillColor=none;align=left;verticalAlign=middle;spacingLeft=4;spacingRight=4;overflow=hidden;points=[[0,0.5],[1,0.5]];portConstraint=eastwest;rotatable=0;whiteSpace=wrap;html=1;fontStyle=0;fontSize=15;" parent="nGlid799hZtoj7pSC51s-67" vertex="1">
          <mxGeometry y="136" width="220" height="20" as="geometry" />
        </mxCell>
        <mxCell id="nGlid799hZtoj7pSC51s-85" value="+ CLF_DATASET_DIR: str" style="text;strokeColor=none;fillColor=none;align=left;verticalAlign=middle;spacingLeft=4;spacingRight=4;overflow=hidden;points=[[0,0.5],[1,0.5]];portConstraint=eastwest;rotatable=0;whiteSpace=wrap;html=1;fontStyle=0;fontSize=15;" parent="nGlid799hZtoj7pSC51s-67" vertex="1">
          <mxGeometry y="156" width="220" height="21" as="geometry" />
        </mxCell>
        <mxCell id="nGlid799hZtoj7pSC51s-86" value="+ CLF_PROJECT_DIR: str" style="text;strokeColor=none;fillColor=none;align=left;verticalAlign=middle;spacingLeft=4;spacingRight=4;overflow=hidden;points=[[0,0.5],[1,0.5]];portConstraint=eastwest;rotatable=0;whiteSpace=wrap;html=1;fontStyle=0;fontSize=15;" parent="nGlid799hZtoj7pSC51s-67" vertex="1">
          <mxGeometry y="177" width="220" height="22" as="geometry" />
        </mxCell>
        <mxCell id="nGlid799hZtoj7pSC51s-87" value="+ CLF_PROJECT_NAME: str" style="text;strokeColor=none;fillColor=none;align=left;verticalAlign=middle;spacingLeft=4;spacingRight=4;overflow=hidden;points=[[0,0.5],[1,0.5]];portConstraint=eastwest;rotatable=0;whiteSpace=wrap;html=1;fontStyle=0;fontSize=15;" parent="nGlid799hZtoj7pSC51s-67" vertex="1">
          <mxGeometry y="199" width="220" height="19" as="geometry" />
        </mxCell>
        <mxCell id="nGlid799hZtoj7pSC51s-88" value="+ CLF_CLASS_NAMES: [str]" style="text;strokeColor=none;fillColor=none;align=left;verticalAlign=middle;spacingLeft=4;spacingRight=4;overflow=hidden;points=[[0,0.5],[1,0.5]];portConstraint=eastwest;rotatable=0;whiteSpace=wrap;html=1;fontStyle=0;fontSize=15;" parent="nGlid799hZtoj7pSC51s-67" vertex="1">
          <mxGeometry y="218" width="220" height="26" as="geometry" />
        </mxCell>
        <mxCell id="nGlid799hZtoj7pSC51s-68" value="" style="rounded=0;whiteSpace=wrap;html=1;align=left;fontStyle=0;fontSize=15;" parent="nGlid799hZtoj7pSC51s-67" vertex="1">
          <mxGeometry y="244" width="220" height="5" as="geometry" />
        </mxCell>
        <mxCell id="xS9U4MmgXTDxuair34R1-2" style="edgeStyle=orthogonalEdgeStyle;rounded=0;orthogonalLoop=1;jettySize=auto;html=1;exitX=0.25;exitY=0;exitDx=0;exitDy=0;" parent="1" source="nGlid799hZtoj7pSC51s-89" target="nGlid799hZtoj7pSC51s-15" edge="1">
          <mxGeometry relative="1" as="geometry" />
        </mxCell>
        <mxCell id="nGlid799hZtoj7pSC51s-89" value="Evaluate" style="swimlane;fontStyle=0;childLayout=stackLayout;horizontal=1;startSize=30;horizontalStack=0;resizeParent=1;resizeParentMax=0;resizeLast=0;collapsible=1;marginBottom=0;whiteSpace=wrap;html=1;fontSize=15;" parent="1" vertex="1">
          <mxGeometry x="1470" y="370" width="450" height="786" as="geometry">
            <mxRectangle x="72" y="30" width="63" height="30" as="alternateBounds" />
          </mxGeometry>
        </mxCell>
        <mxCell id="nGlid799hZtoj7pSC51s-90" value="" style="rounded=0;whiteSpace=wrap;html=1;fontStyle=0;fontSize=15;" parent="nGlid799hZtoj7pSC51s-89" vertex="1">
          <mxGeometry y="30" width="450" height="7" as="geometry" />
        </mxCell>
        <mxCell id="nGlid799hZtoj7pSC51s-91" value="+ __init__(self: Evaluate, &lt;br style=&quot;font-size: 15px;&quot;&gt;&lt;span style=&quot;white-space: pre; font-size: 15px;&quot;&gt;&#x9;&lt;/span&gt;&lt;span style=&quot;white-space: pre; font-size: 15px;&quot;&gt;&#x9;&lt;/span&gt;&amp;nbsp;train_hst: dict, &lt;br style=&quot;font-size: 15px;&quot;&gt;&amp;nbsp;&lt;span style=&quot;white-space: pre; font-size: 15px;&quot;&gt;&#x9;&lt;/span&gt;&lt;span style=&quot;white-space: pre; font-size: 15px;&quot;&gt;&#x9;&lt;/span&gt;&amp;nbsp;y_true: ndarray, &lt;br style=&quot;font-size: 15px;&quot;&gt;&lt;span style=&quot;white-space: pre; font-size: 15px;&quot;&gt;&#x9;&lt;/span&gt;&lt;span style=&quot;white-space: pre; font-size: 15px;&quot;&gt;&#x9;&lt;/span&gt;&amp;nbsp;y_pred: ndarray,&amp;nbsp;&lt;div style=&quot;font-size: 15px;&quot;&gt;&lt;span style=&quot;white-space: pre; font-size: 15px;&quot;&gt;&#x9;&lt;/span&gt;&lt;span style=&quot;white-space: pre; font-size: 15px;&quot;&gt;&#x9;&lt;/span&gt;class_names: [str], &lt;br style=&quot;font-size: 15px;&quot;&gt;&lt;span style=&quot;white-space: pre; font-size: 15px;&quot;&gt;&#x9;&lt;/span&gt;&lt;span style=&quot;white-space: pre; font-size: 15px;&quot;&gt;&#x9;&lt;/span&gt;aug: Bool, &lt;br style=&quot;font-size: 15px;&quot;&gt;&lt;span style=&quot;white-space: pre; font-size: 15px;&quot;&gt;&#x9;&lt;/span&gt;&lt;span style=&quot;white-space: pre; font-size: 15px;&quot;&gt;&#x9;&lt;/span&gt;sf: int): None&amp;nbsp;&lt;/div&gt;" style="text;strokeColor=none;fillColor=none;align=left;verticalAlign=middle;spacingLeft=4;spacingRight=4;overflow=hidden;points=[[0,0.5],[1,0.5]];portConstraint=eastwest;rotatable=0;whiteSpace=wrap;html=1;fontStyle=0;fontSize=15;" parent="nGlid799hZtoj7pSC51s-89" vertex="1">
          <mxGeometry y="37" width="450" height="111" as="geometry" />
        </mxCell>
        <mxCell id="nGlid799hZtoj7pSC51s-103" value="+ average_accuracy(self: Evaluate, print_bool: bool):&amp;nbsp;&lt;div style=&quot;font-size: 15px;&quot;&gt;&lt;span style=&quot;white-space: pre; font-size: 15px;&quot;&gt;&#x9;&lt;/span&gt;average: float&lt;br style=&quot;font-size: 15px;&quot;&gt;&lt;/div&gt;&lt;div style=&quot;font-size: 15px;&quot;&gt;&lt;span style=&quot;white-space: pre; font-size: 15px;&quot;&gt;&#x9;&lt;/span&gt;average_val: float&lt;br style=&quot;font-size: 15px;&quot;&gt;&lt;/div&gt;" style="text;strokeColor=none;fillColor=none;align=left;verticalAlign=middle;spacingLeft=4;spacingRight=4;overflow=hidden;points=[[0,0.5],[1,0.5]];portConstraint=eastwest;rotatable=0;whiteSpace=wrap;html=1;fontStyle=0;fontSize=15;" parent="nGlid799hZtoj7pSC51s-89" vertex="1">
          <mxGeometry y="148" width="450" height="61" as="geometry" />
        </mxCell>
        <mxCell id="nGlid799hZtoj7pSC51s-104" value="+ std_accuracy(self: Evaluate, print_bool: bool):&amp;nbsp;&lt;div style=&quot;font-size: 15px;&quot;&gt;&lt;span style=&quot;white-space: pre; font-size: 15px;&quot;&gt;&#x9;&lt;/span&gt;std: float&lt;br style=&quot;font-size: 15px;&quot;&gt;&lt;/div&gt;&lt;div style=&quot;font-size: 15px;&quot;&gt;&lt;span style=&quot;white-space: pre; font-size: 15px;&quot;&gt;&#x9;&lt;/span&gt;std_val: float&lt;br style=&quot;font-size: 15px;&quot;&gt;&lt;/div&gt;" style="text;strokeColor=none;fillColor=none;align=left;verticalAlign=middle;spacingLeft=4;spacingRight=4;overflow=hidden;points=[[0,0.5],[1,0.5]];portConstraint=eastwest;rotatable=0;whiteSpace=wrap;html=1;fontStyle=0;fontSize=15;" parent="nGlid799hZtoj7pSC51s-89" vertex="1">
          <mxGeometry y="209" width="450" height="57" as="geometry" />
        </mxCell>
        <mxCell id="nGlid799hZtoj7pSC51s-105" value="+ best_accuracy(self: Evaluate, print_bool: bool):&amp;nbsp;&lt;div style=&quot;font-size: 15px;&quot;&gt;&lt;span style=&quot;white-space: pre; font-size: 15px;&quot;&gt;&#x9;&lt;/span&gt;best: float&lt;br style=&quot;font-size: 15px;&quot;&gt;&lt;/div&gt;&lt;div style=&quot;font-size: 15px;&quot;&gt;&lt;span style=&quot;white-space: pre; font-size: 15px;&quot;&gt;&#x9;&lt;/span&gt;best_val: float&lt;br style=&quot;font-size: 15px;&quot;&gt;&lt;/div&gt;" style="text;strokeColor=none;fillColor=none;align=left;verticalAlign=middle;spacingLeft=4;spacingRight=4;overflow=hidden;points=[[0,0.5],[1,0.5]];portConstraint=eastwest;rotatable=0;whiteSpace=wrap;html=1;fontStyle=0;fontSize=15;" parent="nGlid799hZtoj7pSC51s-89" vertex="1">
          <mxGeometry y="266" width="450" height="61" as="geometry" />
        </mxCell>
        <mxCell id="nGlid799hZtoj7pSC51s-106" value="+ last_accuracy(self: Evaluate, print_bool: bool):&amp;nbsp;&lt;div style=&quot;font-size: 15px;&quot;&gt;&lt;span style=&quot;white-space: pre; font-size: 15px;&quot;&gt;&#x9;&lt;/span&gt;last: float&lt;br style=&quot;font-size: 15px;&quot;&gt;&lt;/div&gt;&lt;div style=&quot;font-size: 15px;&quot;&gt;&lt;span style=&quot;white-space: pre; font-size: 15px;&quot;&gt;&#x9;&lt;/span&gt;last_val: float&lt;br style=&quot;font-size: 15px;&quot;&gt;&lt;/div&gt;" style="text;strokeColor=none;fillColor=none;align=left;verticalAlign=middle;spacingLeft=4;spacingRight=4;overflow=hidden;points=[[0,0.5],[1,0.5]];portConstraint=eastwest;rotatable=0;whiteSpace=wrap;html=1;fontStyle=0;fontSize=15;" parent="nGlid799hZtoj7pSC51s-89" vertex="1">
          <mxGeometry y="327" width="450" height="57" as="geometry" />
        </mxCell>
        <mxCell id="nGlid799hZtoj7pSC51s-107" value="+ overall_auc(self: Evaluate, print_bool: bool):&amp;nbsp;&amp;nbsp;&lt;span style=&quot;background-color: initial; font-size: 15px;&quot;&gt;auc: float&lt;/span&gt;" style="text;strokeColor=none;fillColor=none;align=left;verticalAlign=middle;spacingLeft=4;spacingRight=4;overflow=hidden;points=[[0,0.5],[1,0.5]];portConstraint=eastwest;rotatable=0;whiteSpace=wrap;html=1;fontStyle=0;fontSize=15;" parent="nGlid799hZtoj7pSC51s-89" vertex="1">
          <mxGeometry y="384" width="450" height="23" as="geometry" />
        </mxCell>
        <mxCell id="nGlid799hZtoj7pSC51s-108" value="+ max_f1_score(self: Evaluate, print_bool: bool):&amp;nbsp;&lt;div style=&quot;font-size: 15px;&quot;&gt;&lt;span style=&quot;white-space: pre; font-size: 15px;&quot;&gt;&#x9;&lt;/span&gt;max_f1_score: float&lt;/div&gt;&lt;div style=&quot;font-size: 15px;&quot;&gt;&lt;span style=&quot;white-space: pre; font-size: 15px;&quot;&gt;&#x9;&lt;/span&gt;max_f1_epoch: float&lt;span style=&quot;background-color: initial; white-space: pre; font-size: 15px;&quot;&gt;&#x9;&lt;/span&gt;&lt;/div&gt;" style="text;strokeColor=none;fillColor=none;align=left;verticalAlign=middle;spacingLeft=4;spacingRight=4;overflow=hidden;points=[[0,0.5],[1,0.5]];portConstraint=eastwest;rotatable=0;whiteSpace=wrap;html=1;fontStyle=0;fontSize=15;" parent="nGlid799hZtoj7pSC51s-89" vertex="1">
          <mxGeometry y="407" width="450" height="57" as="geometry" />
        </mxCell>
        <mxCell id="nGlid799hZtoj7pSC51s-109" value="+ min_loss(self: Evaluate, print_bool: bool):&amp;nbsp;&lt;div style=&quot;font-size: 15px;&quot;&gt;&lt;span style=&quot;white-space: pre; font-size: 15px;&quot;&gt;&#x9;&lt;/span&gt;min_loss: float&lt;/div&gt;&lt;div style=&quot;font-size: 15px;&quot;&gt;&lt;span style=&quot;white-space: pre; font-size: 15px;&quot;&gt;&#x9;&lt;/span&gt;Min_loss_epoch: float&lt;span style=&quot;background-color: initial; white-space: pre; font-size: 15px;&quot;&gt;&#x9;&lt;/span&gt;&lt;/div&gt;" style="text;strokeColor=none;fillColor=none;align=left;verticalAlign=middle;spacingLeft=4;spacingRight=4;overflow=hidden;points=[[0,0.5],[1,0.5]];portConstraint=eastwest;rotatable=0;whiteSpace=wrap;html=1;fontStyle=0;fontSize=15;" parent="nGlid799hZtoj7pSC51s-89" vertex="1">
          <mxGeometry y="464" width="450" height="60" as="geometry" />
        </mxCell>
        <mxCell id="nGlid799hZtoj7pSC51s-110" value="+ diff_avg_loss_lastN(self: Evaluate, print_bool: bool):&amp;nbsp;&lt;span style=&quot;background-color: initial; white-space: pre; font-size: 15px;&quot;&gt;&#x9;&lt;/span&gt;&lt;span style=&quot;background-color: initial; font-size: 15px;&quot;&gt;diff_avg_loss: float&lt;/span&gt;" style="text;strokeColor=none;fillColor=none;align=left;verticalAlign=middle;spacingLeft=4;spacingRight=4;overflow=hidden;points=[[0,0.5],[1,0.5]];portConstraint=eastwest;rotatable=0;whiteSpace=wrap;html=1;fontStyle=0;fontSize=15;" parent="nGlid799hZtoj7pSC51s-89" vertex="1">
          <mxGeometry y="524" width="450" height="23" as="geometry" />
        </mxCell>
        <mxCell id="nGlid799hZtoj7pSC51s-111" value="+ std_loss_lastN(self: Evaluate, print_bool: bool):&amp;nbsp;&lt;span style=&quot;background-color: initial; white-space: pre; font-size: 15px;&quot;&gt;&#x9;&lt;/span&gt;&lt;span style=&quot;background-color: initial; font-size: 15px;&quot;&gt;std_loss: float&lt;/span&gt;" style="text;strokeColor=none;fillColor=none;align=left;verticalAlign=middle;spacingLeft=4;spacingRight=4;overflow=hidden;points=[[0,0.5],[1,0.5]];portConstraint=eastwest;rotatable=0;whiteSpace=wrap;html=1;fontStyle=0;fontSize=15;" parent="nGlid799hZtoj7pSC51s-89" vertex="1">
          <mxGeometry y="547" width="450" height="24" as="geometry" />
        </mxCell>
        <mxCell id="nGlid799hZtoj7pSC51s-112" value="+ confusion_matrix_class_report(self: Evaluate, print_bool: bool):&amp;nbsp;&lt;div style=&quot;font-size: 15px;&quot;&gt;&lt;span style=&quot;white-space: pre; font-size: 15px;&quot;&gt;&#x9;&lt;/span&gt;conf_matrix_PIL: PIL Image&lt;/div&gt;&lt;div style=&quot;font-size: 15px;&quot;&gt;&lt;span style=&quot;white-space: pre; font-size: 15px;&quot;&gt;&#x9;&lt;/span&gt;conf_matrix_dict: dict&lt;br style=&quot;font-size: 15px;&quot;&gt;&lt;/div&gt;&lt;div style=&quot;font-size: 15px;&quot;&gt;&lt;span style=&quot;white-space: pre; font-size: 15px;&quot;&gt;&#x9;&lt;/span&gt;class_report: dict&lt;br style=&quot;font-size: 15px;&quot;&gt;&lt;/div&gt;" style="text;strokeColor=none;fillColor=none;align=left;verticalAlign=middle;spacingLeft=4;spacingRight=4;overflow=hidden;points=[[0,0.5],[1,0.5]];portConstraint=eastwest;rotatable=0;whiteSpace=wrap;html=1;fontStyle=0;fontSize=15;" parent="nGlid799hZtoj7pSC51s-89" vertex="1">
          <mxGeometry y="571" width="450" height="78" as="geometry" />
        </mxCell>
        <mxCell id="nGlid799hZtoj7pSC51s-113" value="+ class_auc(self: Evaluate, print_bool: bool):&amp;nbsp;&amp;nbsp;&lt;span style=&quot;background-color: initial; font-size: 15px;&quot;&gt;aucs: dict&lt;/span&gt;" style="text;strokeColor=none;fillColor=none;align=left;verticalAlign=middle;spacingLeft=4;spacingRight=4;overflow=hidden;points=[[0,0.5],[1,0.5]];portConstraint=eastwest;rotatable=0;whiteSpace=wrap;html=1;fontStyle=0;fontSize=15;" parent="nGlid799hZtoj7pSC51s-89" vertex="1">
          <mxGeometry y="649" width="450" height="22" as="geometry" />
        </mxCell>
        <mxCell id="nGlid799hZtoj7pSC51s-114" value="+ log_metrics(self: Evaluate,&amp;nbsp;&lt;div style=&quot;font-size: 15px;&quot;&gt;&lt;span style=&quot;white-space: pre; font-size: 15px;&quot;&gt;&#x9;&lt;/span&gt;&lt;span style=&quot;white-space: pre; font-size: 15px;&quot;&gt;&#x9;&amp;nbsp;&lt;/span&gt;&amp;nbsp; &amp;nbsp; &amp;nbsp; task: ClearML task,&amp;nbsp;&lt;/div&gt;&lt;div style=&quot;font-size: 15px;&quot;&gt;&lt;span style=&quot;white-space: pre; font-size: 15px;&quot;&gt;&#x9;&lt;/span&gt;&lt;span style=&quot;white-space: pre; font-size: 15px;&quot;&gt;&#x9;&lt;/span&gt;&amp;nbsp; &amp;nbsp; &amp;nbsp; &amp;nbsp;logger: ClearML Logger,&lt;/div&gt;&lt;div style=&quot;font-size: 15px;&quot;&gt;&lt;span style=&quot;white-space: pre; font-size: 15px;&quot;&gt;&#x9;&lt;/span&gt;&lt;span style=&quot;white-space: pre; font-size: 15px;&quot;&gt;&#x9;&lt;/span&gt;&amp;nbsp; &amp;nbsp; &amp;nbsp; &amp;nbsp;N: int,&amp;nbsp;&lt;/div&gt;&lt;div style=&quot;font-size: 15px;&quot;&gt;&lt;span style=&quot;white-space: pre; font-size: 15px;&quot;&gt;&#x9;&lt;/span&gt;&lt;span style=&quot;white-space: pre; font-size: 15px;&quot;&gt;&#x9;&lt;/span&gt;&amp;nbsp; &amp;nbsp; &amp;nbsp; &amp;nbsp;augmentation_metadata: dict,&amp;nbsp;&lt;/div&gt;&lt;div style=&quot;font-size: 15px;&quot;&gt;&lt;span style=&quot;white-space: pre; font-size: 15px;&quot;&gt;&#x9;&lt;/span&gt;&lt;span style=&quot;white-space: pre; font-size: 15px;&quot;&gt;&#x9;&amp;nbsp;&lt;/span&gt;&amp;nbsp; &amp;nbsp; &amp;nbsp; hyperparameters: dict): None&amp;nbsp;&lt;/div&gt;" style="text;strokeColor=none;fillColor=none;align=left;verticalAlign=middle;spacingLeft=4;spacingRight=4;overflow=hidden;points=[[0,0.5],[1,0.5]];portConstraint=eastwest;rotatable=0;whiteSpace=wrap;html=1;fontStyle=0;fontSize=15;" parent="nGlid799hZtoj7pSC51s-89" vertex="1">
          <mxGeometry y="671" width="450" height="115" as="geometry" />
        </mxCell>
        <mxCell id="nGlid799hZtoj7pSC51s-115" value="train_clf.py" style="swimlane;fontStyle=0;childLayout=stackLayout;horizontal=1;startSize=30;horizontalStack=0;resizeParent=1;resizeParentMax=0;resizeLast=0;collapsible=1;marginBottom=0;whiteSpace=wrap;html=1;fontSize=15;" parent="1" vertex="1">
          <mxGeometry x="1130" y="970" width="301" height="440" as="geometry">
            <mxRectangle x="72" y="30" width="63" height="30" as="alternateBounds" />
          </mxGeometry>
        </mxCell>
        <mxCell id="nGlid799hZtoj7pSC51s-116" value="&amp;nbsp;+ seed_const: int&lt;div style=&quot;font-size: 15px;&quot;&gt;&lt;div style=&quot;font-size: 15px;&quot;&gt;&amp;nbsp;+ seed_time: int&lt;/div&gt;&lt;/div&gt;&lt;div style=&quot;font-size: 15px;&quot;&gt;&amp;nbsp;+ epochs: int&lt;/div&gt;&lt;div style=&quot;font-size: 15px;&quot;&gt;&amp;nbsp;+ train_size: int&lt;/div&gt;&lt;div style=&quot;font-size: 15px;&quot;&gt;&amp;nbsp;+ augmentation_metadata: dict&lt;/div&gt;&lt;div style=&quot;font-size: 15px;&quot;&gt;&amp;nbsp;+ task_name: str&lt;/div&gt;&lt;div style=&quot;font-size: 15px;&quot;&gt;&amp;nbsp;+ sub_rpoject: str&amp;nbsp;&amp;nbsp;&lt;/div&gt;&lt;div style=&quot;font-size: 15px;&quot;&gt;&amp;nbsp;+ w1, w2: int&lt;/div&gt;" style="rounded=0;whiteSpace=wrap;html=1;align=left;fontStyle=0;fontSize=15;" parent="nGlid799hZtoj7pSC51s-115" vertex="1">
          <mxGeometry y="30" width="301" height="150" as="geometry" />
        </mxCell>
        <mxCell id="nGlid799hZtoj7pSC51s-117" value="+ main(RUN: int,&amp;nbsp;&lt;div style=&quot;font-size: 15px;&quot;&gt;&lt;span style=&quot;white-space: pre; font-size: 15px;&quot;&gt;&#x9;&lt;/span&gt;&amp;nbsp; &amp;nbsp; epochs: int,&amp;nbsp;&lt;/div&gt;&lt;div style=&quot;font-size: 15px;&quot;&gt;&lt;span style=&quot;white-space: pre; font-size: 15px;&quot;&gt;&#x9;&lt;/span&gt;&amp;nbsp; &amp;nbsp; train_size: int,&amp;nbsp;&lt;/div&gt;&lt;div style=&quot;font-size: 15px;&quot;&gt;&lt;span style=&quot;white-space: pre; font-size: 15px;&quot;&gt;&#x9;&lt;/span&gt;&amp;nbsp; &amp;nbsp; augmentation_metadata: dict,&amp;nbsp;&lt;/div&gt;&lt;div style=&quot;font-size: 15px;&quot;&gt;&amp;nbsp;&lt;span style=&quot;white-space: pre; font-size: 15px;&quot;&gt;&#x9;&lt;/span&gt;&amp;nbsp; &amp;nbsp; task_name: str,&amp;nbsp;&lt;/div&gt;&lt;div style=&quot;font-size: 15px;&quot;&gt;&lt;span style=&quot;white-space: pre; font-size: 15px;&quot;&gt;&#x9;&lt;/span&gt;&amp;nbsp; &amp;nbsp; sub_project: str,&amp;nbsp;&lt;/div&gt;&lt;div style=&quot;font-size: 15px;&quot;&gt;&lt;span style=&quot;white-space: pre; font-size: 15px;&quot;&gt;&#x9;&lt;/span&gt;&amp;nbsp; &amp;nbsp; epochs: int,&amp;nbsp;&lt;/div&gt;&lt;div style=&quot;font-size: 15px;&quot;&gt;&amp;nbsp;&lt;span style=&quot;white-space: pre; font-size: 15px;&quot;&gt;&#x9;&amp;nbsp;&lt;/span&gt;&amp;nbsp; &amp;nbsp;train_size: int,&amp;nbsp;&lt;/div&gt;&lt;div style=&quot;font-size: 15px;&quot;&gt;&lt;span style=&quot;white-space: pre; font-size: 15px;&quot;&gt;&#x9;&lt;/span&gt;&amp;nbsp; &amp;nbsp; w1: int,&amp;nbsp;&lt;/div&gt;&lt;div style=&quot;font-size: 15px;&quot;&gt;&lt;span style=&quot;white-space: pre; font-size: 15px;&quot;&gt;&#x9;&lt;/span&gt;&amp;nbsp; &amp;nbsp; w2: int): None&lt;/div&gt;" style="text;strokeColor=none;fillColor=none;align=left;verticalAlign=middle;spacingLeft=4;spacingRight=4;overflow=hidden;points=[[0,0.5],[1,0.5]];portConstraint=eastwest;rotatable=0;whiteSpace=wrap;html=1;fontStyle=0;fontSize=15;" parent="nGlid799hZtoj7pSC51s-115" vertex="1">
          <mxGeometry y="180" width="301" height="145" as="geometry" />
        </mxCell>
        <mxCell id="nGlid799hZtoj7pSC51s-133" value="+ create_dataset_sample(): None" style="text;strokeColor=none;fillColor=none;align=left;verticalAlign=middle;spacingLeft=4;spacingRight=4;overflow=hidden;points=[[0,0.5],[1,0.5]];portConstraint=eastwest;rotatable=0;whiteSpace=wrap;html=1;fontStyle=0;fontSize=15;" parent="nGlid799hZtoj7pSC51s-115" vertex="1">
          <mxGeometry y="325" width="301" height="25" as="geometry" />
        </mxCell>
        <mxCell id="nGlid799hZtoj7pSC51s-134" value="+ get_model(): model: Sequential Tensorflow Model" style="text;strokeColor=none;fillColor=none;align=left;verticalAlign=middle;spacingLeft=4;spacingRight=4;overflow=hidden;points=[[0,0.5],[1,0.5]];portConstraint=eastwest;rotatable=0;whiteSpace=wrap;html=1;fontStyle=0;fontSize=15;" parent="nGlid799hZtoj7pSC51s-115" vertex="1">
          <mxGeometry y="350" width="301" height="40" as="geometry" />
        </mxCell>
        <mxCell id="nGlid799hZtoj7pSC51s-135" value="+ train_pure(): None" style="text;strokeColor=none;fillColor=none;align=left;verticalAlign=middle;spacingLeft=4;spacingRight=4;overflow=hidden;points=[[0,0.5],[1,0.5]];portConstraint=eastwest;rotatable=0;whiteSpace=wrap;html=1;fontStyle=0;fontSize=15;" parent="nGlid799hZtoj7pSC51s-115" vertex="1">
          <mxGeometry y="390" width="301" height="20" as="geometry" />
        </mxCell>
        <mxCell id="nGlid799hZtoj7pSC51s-136" value="+ train_aug(): None" style="text;strokeColor=none;fillColor=none;align=left;verticalAlign=middle;spacingLeft=4;spacingRight=4;overflow=hidden;points=[[0,0.5],[1,0.5]];portConstraint=eastwest;rotatable=0;whiteSpace=wrap;html=1;fontStyle=0;fontSize=15;" parent="nGlid799hZtoj7pSC51s-115" vertex="1">
          <mxGeometry y="410" width="301" height="30" as="geometry" />
        </mxCell>
        <mxCell id="nGlid799hZtoj7pSC51s-137" value="train_YOLO.py" style="swimlane;fontStyle=0;childLayout=stackLayout;horizontal=1;startSize=30;horizontalStack=0;resizeParent=1;resizeParentMax=0;resizeLast=0;collapsible=1;marginBottom=0;whiteSpace=wrap;html=1;fontSize=15;" parent="1" vertex="1">
          <mxGeometry x="800" y="970" width="301" height="408" as="geometry">
            <mxRectangle x="72" y="30" width="63" height="30" as="alternateBounds" />
          </mxGeometry>
        </mxCell>
        <mxCell id="nGlid799hZtoj7pSC51s-138" value="&amp;nbsp;+ seed_const: int&lt;div style=&quot;font-size: 15px;&quot;&gt;&lt;div style=&quot;font-size: 15px;&quot;&gt;&amp;nbsp;+ seed_time: int&lt;/div&gt;&lt;/div&gt;&lt;div style=&quot;font-size: 15px;&quot;&gt;&amp;nbsp;+ epochs: int&lt;/div&gt;&lt;div style=&quot;font-size: 15px;&quot;&gt;&amp;nbsp;+ train_size: int&lt;/div&gt;&lt;div style=&quot;font-size: 15px;&quot;&gt;&amp;nbsp;+ augmentation_metadata: dict&lt;/div&gt;&lt;div style=&quot;font-size: 15px;&quot;&gt;&amp;nbsp;+ task_name: str&lt;/div&gt;&lt;div style=&quot;font-size: 15px;&quot;&gt;&amp;nbsp;+ sub_project: str&amp;nbsp;&amp;nbsp;&lt;/div&gt;&lt;div style=&quot;font-size: 15px;&quot;&gt;&amp;nbsp;+ w1, w2: int&lt;/div&gt;" style="rounded=0;whiteSpace=wrap;html=1;align=left;fontStyle=0;fontSize=15;" parent="nGlid799hZtoj7pSC51s-137" vertex="1">
          <mxGeometry y="30" width="301" height="150" as="geometry" />
        </mxCell>
        <mxCell id="nGlid799hZtoj7pSC51s-139" value="+ main(RUN: int,&amp;nbsp;&lt;div style=&quot;font-size: 15px;&quot;&gt;&lt;span style=&quot;white-space: pre; font-size: 15px;&quot;&gt;&#x9;&lt;/span&gt;&amp;nbsp; &amp;nbsp; epochs: int,&amp;nbsp;&lt;/div&gt;&lt;div style=&quot;font-size: 15px;&quot;&gt;&lt;span style=&quot;white-space: pre; font-size: 15px;&quot;&gt;&#x9;&lt;/span&gt;&amp;nbsp; &amp;nbsp; train_size: int,&amp;nbsp;&lt;/div&gt;&lt;div style=&quot;font-size: 15px;&quot;&gt;&lt;span style=&quot;white-space: pre; font-size: 15px;&quot;&gt;&#x9;&lt;/span&gt;&amp;nbsp; &amp;nbsp; augmentation_metadata: dict,&amp;nbsp;&lt;/div&gt;&lt;div style=&quot;font-size: 15px;&quot;&gt;&amp;nbsp;&lt;span style=&quot;white-space: pre; font-size: 15px;&quot;&gt;&#x9;&lt;/span&gt;&amp;nbsp; &amp;nbsp; task_name: str,&amp;nbsp;&lt;/div&gt;&lt;div style=&quot;font-size: 15px;&quot;&gt;&lt;span style=&quot;white-space: pre; font-size: 15px;&quot;&gt;&#x9;&lt;/span&gt;&amp;nbsp; &amp;nbsp; sub_project: str,&amp;nbsp;&lt;/div&gt;&lt;div style=&quot;font-size: 15px;&quot;&gt;&lt;span style=&quot;white-space: pre; font-size: 15px;&quot;&gt;&#x9;&lt;/span&gt;&amp;nbsp; &amp;nbsp; epochs: int,&amp;nbsp;&lt;/div&gt;&lt;div style=&quot;font-size: 15px;&quot;&gt;&amp;nbsp;&lt;span style=&quot;white-space: pre; font-size: 15px;&quot;&gt;&#x9;&amp;nbsp;&lt;/span&gt;&amp;nbsp; &amp;nbsp;train_size: int,&amp;nbsp;&lt;/div&gt;&lt;div style=&quot;font-size: 15px;&quot;&gt;&lt;span style=&quot;white-space: pre; font-size: 15px;&quot;&gt;&#x9;&lt;/span&gt;&amp;nbsp; &amp;nbsp; w1: int,&amp;nbsp;&lt;/div&gt;&lt;div style=&quot;font-size: 15px;&quot;&gt;&lt;span style=&quot;white-space: pre; font-size: 15px;&quot;&gt;&#x9;&lt;/span&gt;&amp;nbsp; &amp;nbsp; w2: int): None&lt;/div&gt;" style="text;strokeColor=none;fillColor=none;align=left;verticalAlign=middle;spacingLeft=4;spacingRight=4;overflow=hidden;points=[[0,0.5],[1,0.5]];portConstraint=eastwest;rotatable=0;whiteSpace=wrap;html=1;fontStyle=0;fontSize=15;" parent="nGlid799hZtoj7pSC51s-137" vertex="1">
          <mxGeometry y="180" width="301" height="150" as="geometry" />
        </mxCell>
        <mxCell id="nGlid799hZtoj7pSC51s-140" value="+ create_dataset_sample(): None" style="text;strokeColor=none;fillColor=none;align=left;verticalAlign=middle;spacingLeft=4;spacingRight=4;overflow=hidden;points=[[0,0.5],[1,0.5]];portConstraint=eastwest;rotatable=0;whiteSpace=wrap;html=1;fontStyle=0;fontSize=15;" parent="nGlid799hZtoj7pSC51s-137" vertex="1">
          <mxGeometry y="330" width="301" height="21" as="geometry" />
        </mxCell>
        <mxCell id="nGlid799hZtoj7pSC51s-142" value="+ train_pure(): None" style="text;strokeColor=none;fillColor=none;align=left;verticalAlign=middle;spacingLeft=4;spacingRight=4;overflow=hidden;points=[[0,0.5],[1,0.5]];portConstraint=eastwest;rotatable=0;whiteSpace=wrap;html=1;fontStyle=0;fontSize=15;" parent="nGlid799hZtoj7pSC51s-137" vertex="1">
          <mxGeometry y="351" width="301" height="29" as="geometry" />
        </mxCell>
        <mxCell id="nGlid799hZtoj7pSC51s-143" value="+ train_aug(): None" style="text;strokeColor=none;fillColor=none;align=left;verticalAlign=middle;spacingLeft=4;spacingRight=4;overflow=hidden;points=[[0,0.5],[1,0.5]];portConstraint=eastwest;rotatable=0;whiteSpace=wrap;html=1;fontStyle=0;fontSize=15;" parent="nGlid799hZtoj7pSC51s-137" vertex="1">
          <mxGeometry y="380" width="301" height="28" as="geometry" />
        </mxCell>
        <mxCell id="nGlid799hZtoj7pSC51s-144" value="Tester.ipynb" style="swimlane;fontStyle=0;childLayout=stackLayout;horizontal=1;startSize=30;horizontalStack=0;resizeParent=1;resizeParentMax=0;resizeLast=0;collapsible=1;marginBottom=0;whiteSpace=wrap;html=1;fontSize=15;" parent="1" vertex="1">
          <mxGeometry x="840" y="1450" width="245" height="208" as="geometry">
            <mxRectangle x="72" y="30" width="63" height="30" as="alternateBounds" />
          </mxGeometry>
        </mxCell>
        <mxCell id="nGlid799hZtoj7pSC51s-145" value="&amp;nbsp;+ epochs: int&lt;div style=&quot;font-size: 15px;&quot;&gt;&amp;nbsp;+ train_size: int&lt;/div&gt;&lt;div style=&quot;font-size: 15px;&quot;&gt;&amp;nbsp;+ RUNS: int&lt;/div&gt;&lt;div style=&quot;font-size: 15px;&quot;&gt;&amp;nbsp;+ task_name: str&lt;/div&gt;&lt;div style=&quot;font-size: 15px;&quot;&gt;&amp;nbsp;+ sub_project: str&lt;/div&gt;&lt;div style=&quot;font-size: 15px;&quot;&gt;&amp;nbsp;+ augmentation_metadata: dict&lt;/div&gt;&lt;div style=&quot;font-size: 15px;&quot;&gt;&lt;span style=&quot;background-color: initial; font-size: 15px;&quot;&gt;&amp;nbsp;+ w1, w2: int&lt;/span&gt;&lt;/div&gt;" style="rounded=0;whiteSpace=wrap;html=1;align=left;fontStyle=0;fontSize=15;" parent="nGlid799hZtoj7pSC51s-144" vertex="1">
          <mxGeometry y="30" width="245" height="130" as="geometry" />
        </mxCell>
        <mxCell id="nGlid799hZtoj7pSC51s-147" value="+ train_clf.main(...)" style="text;strokeColor=none;fillColor=none;align=left;verticalAlign=middle;spacingLeft=4;spacingRight=4;overflow=hidden;points=[[0,0.5],[1,0.5]];portConstraint=eastwest;rotatable=0;whiteSpace=wrap;html=1;fontStyle=0;fontSize=15;" parent="nGlid799hZtoj7pSC51s-144" vertex="1">
          <mxGeometry y="160" width="245" height="24" as="geometry" />
        </mxCell>
        <mxCell id="nGlid799hZtoj7pSC51s-152" value="+ train_YOLO.main(...)" style="text;strokeColor=none;fillColor=none;align=left;verticalAlign=middle;spacingLeft=4;spacingRight=4;overflow=hidden;points=[[0,0.5],[1,0.5]];portConstraint=eastwest;rotatable=0;whiteSpace=wrap;html=1;fontStyle=0;fontSize=15;" parent="nGlid799hZtoj7pSC51s-144" vertex="1">
          <mxGeometry y="184" width="245" height="24" as="geometry" />
        </mxCell>
        <mxCell id="SQDfd7YPCG2e_DJXSsXQ-5" style="edgeStyle=orthogonalEdgeStyle;rounded=0;orthogonalLoop=1;jettySize=auto;html=1;entryX=0.494;entryY=0.978;entryDx=0;entryDy=0;entryPerimeter=0;fontStyle=0" parent="1" target="nGlid799hZtoj7pSC51s-20" edge="1">
          <mxGeometry relative="1" as="geometry">
            <mxPoint x="1160" y="370" as="sourcePoint" />
          </mxGeometry>
        </mxCell>
        <mxCell id="SQDfd7YPCG2e_DJXSsXQ-10" style="edgeStyle=orthogonalEdgeStyle;rounded=0;orthogonalLoop=1;jettySize=auto;html=1;exitX=0.5;exitY=0;exitDx=0;exitDy=0;entryX=0.136;entryY=0.984;entryDx=0;entryDy=0;entryPerimeter=0;fontStyle=0" parent="1" source="nGlid799hZtoj7pSC51s-137" target="oV85DCt09_R3GapRd5gg-1" edge="1">
          <mxGeometry relative="1" as="geometry">
            <Array as="points">
              <mxPoint x="949" y="970" />
            </Array>
          </mxGeometry>
        </mxCell>
        <mxCell id="SQDfd7YPCG2e_DJXSsXQ-11" style="edgeStyle=orthogonalEdgeStyle;rounded=0;orthogonalLoop=1;jettySize=auto;html=1;exitX=0.5;exitY=0;exitDx=0;exitDy=0;entryX=0.712;entryY=1.003;entryDx=0;entryDy=0;entryPerimeter=0;fontStyle=0" parent="1" source="nGlid799hZtoj7pSC51s-115" target="oV85DCt09_R3GapRd5gg-1" edge="1">
          <mxGeometry relative="1" as="geometry">
            <Array as="points">
              <mxPoint x="1282" y="970" />
            </Array>
          </mxGeometry>
        </mxCell>
        <mxCell id="SQDfd7YPCG2e_DJXSsXQ-12" style="edgeStyle=orthogonalEdgeStyle;rounded=0;orthogonalLoop=1;jettySize=auto;html=1;exitX=0.75;exitY=0;exitDx=0;exitDy=0;entryX=-0.001;entryY=0.044;entryDx=0;entryDy=0;entryPerimeter=0;fontStyle=0" parent="1" source="nGlid799hZtoj7pSC51s-115" target="nGlid799hZtoj7pSC51s-112" edge="1">
          <mxGeometry relative="1" as="geometry">
            <Array as="points">
              <mxPoint x="1360" y="970" />
              <mxPoint x="1360" y="944" />
            </Array>
          </mxGeometry>
        </mxCell>
        <mxCell id="SQDfd7YPCG2e_DJXSsXQ-13" style="edgeStyle=orthogonalEdgeStyle;rounded=0;orthogonalLoop=1;jettySize=auto;html=1;exitX=0.5;exitY=0;exitDx=0;exitDy=0;fontStyle=0;entryX=0.532;entryY=1.071;entryDx=0;entryDy=0;entryPerimeter=0;" parent="1" source="nGlid799hZtoj7pSC51s-144" edge="1" target="nGlid799hZtoj7pSC51s-143">
          <mxGeometry relative="1" as="geometry">
            <mxPoint x="960" y="1390" as="targetPoint" />
            <Array as="points">
              <mxPoint x="960" y="1450" />
            </Array>
          </mxGeometry>
        </mxCell>
        <mxCell id="SQDfd7YPCG2e_DJXSsXQ-15" style="edgeStyle=orthogonalEdgeStyle;rounded=0;orthogonalLoop=1;jettySize=auto;html=1;exitX=1;exitY=0.5;exitDx=0;exitDy=0;entryX=0.5;entryY=0;entryDx=0;entryDy=0;fontStyle=0" parent="1" source="nGlid799hZtoj7pSC51s-136" target="nGlid799hZtoj7pSC51s-67" edge="1">
          <mxGeometry relative="1" as="geometry">
            <Array as="points">
              <mxPoint x="1451" y="1395" />
              <mxPoint x="1451" y="1430" />
              <mxPoint x="1300" y="1430" />
            </Array>
          </mxGeometry>
        </mxCell>
        <mxCell id="xS9U4MmgXTDxuair34R1-3" style="edgeStyle=orthogonalEdgeStyle;rounded=0;orthogonalLoop=1;jettySize=auto;html=1;exitX=0.085;exitY=0.001;exitDx=0;exitDy=0;exitPerimeter=0;" parent="1" source="nGlid799hZtoj7pSC51s-43" target="nGlid799hZtoj7pSC51s-21" edge="1">
          <mxGeometry relative="1" as="geometry">
            <mxPoint x="919" y="369" as="sourcePoint" />
            <Array as="points">
              <mxPoint x="919" y="350" />
              <mxPoint x="643" y="350" />
            </Array>
          </mxGeometry>
        </mxCell>
        <mxCell id="KbOtCX-a3xnPJYHWATMc-1" style="edgeStyle=orthogonalEdgeStyle;rounded=0;orthogonalLoop=1;jettySize=auto;html=1;exitX=0.75;exitY=0;exitDx=0;exitDy=0;entryX=0.173;entryY=1.033;entryDx=0;entryDy=0;entryPerimeter=0;" parent="1" source="nGlid799hZtoj7pSC51s-144" target="nGlid799hZtoj7pSC51s-136" edge="1">
          <mxGeometry relative="1" as="geometry">
            <Array as="points">
              <mxPoint x="1024" y="1430" />
              <mxPoint x="1182" y="1430" />
            </Array>
          </mxGeometry>
        </mxCell>
        <mxCell id="KbOtCX-a3xnPJYHWATMc-2" style="edgeStyle=orthogonalEdgeStyle;rounded=0;orthogonalLoop=1;jettySize=auto;html=1;exitX=0;exitY=0.5;exitDx=0;exitDy=0;entryX=0;entryY=0.5;entryDx=0;entryDy=0;" parent="1" source="nGlid799hZtoj7pSC51s-142" target="nGlid799hZtoj7pSC51s-88" edge="1">
          <mxGeometry relative="1" as="geometry" />
        </mxCell>
      </root>
    </mxGraphModel>
  </diagram>
</mxfile>
